<svg xmlns="http://www.w3.org/2000/svg" xmlns:xlink="http://www.w3.org/1999/xlink" fill="#000000" height="566.0399780273438" width="566.0399780273438" version="1.1" xml:space="preserve" stroke="#000000" stroke-width="37.264379000000005" style=""><rect id="backgroundrect" width="100%" height="100%" x="0" y="0" fill="none" stroke="none"/><g class="currentLayer" style=""><title>Layer 1</title><path fill="#eb1a1a" fill-opacity="1" stroke="#eb1a1a" stroke-opacity="1" stroke-width="2" stroke-dasharray="none" stroke-linejoin="round" stroke-linecap="butt" stroke-dashoffset="" fill-rule="nonzero" opacity="1" marker-start="" marker-mid="" marker-end="" id="svg_6" d="M127.25631826360282,274.14897621053467 L374.57627058938397,272.8813562527888 L420.9039542052032,311.29943534883404 L282.485875109158,441.2429381736928 " style="color: rgb(0, 0, 0);" class="selected"/><path fill="#eb1a1a" fill-opacity="1" stroke="#eb1a1a" stroke-opacity="1" stroke-width="2" stroke-dasharray="none" stroke-linejoin="round" stroke-linecap="butt" stroke-dashoffset="" fill-rule="nonzero" opacity="1" marker-start="" marker-mid="" marker-end="" d="M355.4576265215874,225.11299467086792 C355.4576265215874,175.94172395263587 385.66480884202934,136.11299467086792 422.9576265215874,136.11299467086792 C460.2504442011454,136.11299467086792 490.4576265215874,175.94172395263587 490.4576265215874,225.11299467086792 C490.4576265215874,274.28426538909997 460.2504442011454,314.1129946708679 422.9576265215874,314.1129946708679 C385.66480884202934,314.1129946708679 355.4576265215874,274.28426538909997 355.4576265215874,225.11299467086792 z" id="svg_5" class="selected"/><g id="SVGRepo_bgCarrier" stroke-width="0" class="selected"/><g id="SVGRepo_tracerCarrier" stroke-linecap="round" stroke-linejoin="round" class="selected"/><polyline fill="none" stroke="#222222" stroke-width="2" stroke-linejoin="round" stroke-dashoffset="" fill-rule="nonzero" marker-start="" marker-mid="" marker-end="" id="svg_3" points="225.56140118837357,240.25068187713623 226.1263731122017,240.81565380096436 226.1263731122017,241.38062572479248 226.1263731122017,243.07554149627686 226.1263731122017,245.33542919158936 226.69134503602982,247.59531688690186 227.25631695985794,250.9851484298706 227.25631695985794,253.24502086639404 227.25631695985794,257.1998243331909 227.25631695985794,260.02468395233154 227.25631695985794,263.4145154953003 227.25631695985794,266.2393751144409 227.25631695985794,269.06423473358154 227.25631695985794,271.88909435272217 227.25631695985794,273.58401012420654 226.69134503602982,274.14898204803467 226.69134503602982,274.7139539718628 226.1263731122017,274.7139539718628 225.56140118837357,274.7139539718628 224.99642926454544,274.7139539718628 223.30151349306107,274.7139539718628 221.6065977215767,273.0190382003784 219.91168195009232,271.32412242889404 217.0868223309517,268.4992628097534 213.13201886415482,263.9794874191284 209.17721539735794,259.4597120285034 204.09248334169388,254.3749647140503 199.00773602724075,249.29023265838623 195.617904484272,244.77045726776123 192.79304486513138,240.81565380096436 190.53315716981888,237.4258222579956 189.40321332216263,235.1659345626831 188.8382413983345,231.77610301971436 188.27326947450638,228.3862714767456 188.27326947450638,226.1263837814331 188.27326947450638,222.17158031463623 189.40321332216263,219.3467206954956 189.96818524599075,217.0868330001831 192.22807294130325,215.39191722869873 195.05293256044388,213.69700145721436 197.8777921795845,212.5670576095581 201.83259564638138,212.00208568572998 205.78739911317825,212.00208568572998 210.3071592450142,212.00208568572998 216.52185040712357,212.00208568572998 222.73654156923294,213.13202953338623 228.95123273134232,214.8269453048706 234.03598004579544,217.0868330001831 239.12072736024857,219.91169261932373 244.2054746747017,223.8664960861206 247.59530621767044,227.82129955291748 250.42016583681107,232.9060468673706 252.11508160829544,237.99079418182373 253.80999737977982,243.64051342010498 254.37496930360794,249.85520458221436 254.93994122743607,254.93993663787842 254.93994122743607,258.8947401046753 254.37496930360794,263.4145154953003 252.68005353212357,266.80434703826904 250.42016583681107,269.06423473358154 248.7252500653267,270.1941785812378 245.90039044618607,271.32412242889404 243.64050275087357,272.4540662765503 239.6856992840767,273.0190382003784 235.1659238934517,273.0190382003784 228.95123273134232,271.88909435272217 221.6065977215767,269.62920665740967 214.8269346356392,267.36931896209717 208.04728680849075,263.9794874191284 201.26762372255325,261.7195997238159 195.617904484272,258.8947401046753 191.66310101747513,256.6348524093628 189.40321332216263,253.80999279022217 188.27326947450638,251.55012035369873 188.27326947450638,249.29023265838623 188.8382413983345,245.33542919158936 190.53315716981888,241.9455976486206 193.3580167889595,238.55576610565186 197.31282025575638,235.1659345626831 203.52751141786575,232.34107494354248 210.87213116884232,230.6461591720581 217.65179425477982,228.95124340057373 225.56140118837357,228.3862714767456 233.47100812196732,227.82129955291748 240.81564313173294,227.82129955291748 247.59530621767044,228.95124340057373 253.80999737977982,231.21113109588623 259.45971661806107,234.03599071502686 263.41452008485794,236.86085033416748 266.23934918642044,241.38062572479248 268.49923688173294,245.33542919158936 269.6291807293892,249.85520458221436 269.6291807293892,253.80999279022217 269.6291807293892,258.32976818084717 268.49923688173294,262.84954357147217 265.67440778017044,267.36931896209717 262.8495176434517,270.1941785812378 260.5896299481392,273.0190382003784 257.19982892274857,275.2789258956909 252.11508160829544,277.5388135910034 247.59530621767044,278.66875743865967 241.9455869793892,279.2337293624878 237.4258115887642,279.2337293624878 230.6461485028267,278.66875743865967 223.8664854168892,276.40886974334717 217.65179425477982,274.14898204803467 212.00207501649857,271.88909435272217 207.48231488466263,269.06423473358154 202.96253949403763,266.2393751144409 200.137679874897,262.84954357147217 199.00773602724075,259.4597120285034 199.00773602724075,257.1998243331909 199.57270795106888,253.24502086639404 201.83259564638138,250.42017650604248 206.9173429608345,247.59531688690186 213.13201886415482,244.77045726776123 219.91168195009232,243.07554149627686 228.3862608075142,242.51056957244873 237.4258115887642,241.9455976486206 248.16027814149857,241.9455976486206 259.45971661806107,241.9455976486206 269.6291807293892,243.64051342010498 277.53878766298294,245.33542919158936 283.1885069012642,246.4653730392456 288.27328473329544,247.59531688690186 291.09814435243607,248.7252607345581 293.35800153017044,249.85520458221436 294.4879758954048,250.42017650604248 295.05294781923294,251.55012035369873 " style="color: rgb(0, 0, 0);" class="selected"/><rect fill="#eb1a1a" stroke="#eb1a1a" stroke-width="2" stroke-linejoin="round" stroke-dashoffset="" fill-rule="nonzero" id="svg_4" x="80.76836413145065" y="111.55932188034058" width="378.9717712402344" height="168.56497192382812" style="color: rgb(0, 0, 0);" class="selected" stroke-opacity="1" fill-opacity="1"/><g id="SVGRepo_iconCarrier" class="selected"> <g id="svg_1"> <path d="M481.05862652158737,107.11399467086792 c-24.7,-24.7 -57.4,-38.2 -92.3,-38.2 s-67.7,13.6 -92.4,38.3 l-12.9,12.9 l-13.1,-13.1 c-24.7,-24.7 -57.6,-38.4 -92.5,-38.4 c-34.8,0 -67.6,13.6 -92.2,38.2 c-24.7,24.7 -38.3,57.5 -38.2,92.4 c0,34.9 13.7,67.6 38.4,92.3 l187.8,187.8 c2.6,2.6 6.1,4 9.5,4 c3.4,0 6.9,-1.3 9.5,-3.9 l188.2,-187.5 c24.7,-24.7 38.3,-57.5 38.3,-92.4 C519.2586265215873,164.61399467086792 505.75862652158736,131.8139946708679 481.05862652158737,107.11399467086792 zM461.8586265215874,272.81399467086794 l-178.7,178 l-178.3,-178.3 c-19.6,-19.6 -30.4,-45.6 -30.4,-73.3 s10.7,-53.7 30.3,-73.2 c19.5,-19.5 45.5,-30.3 73.1,-30.3 c27.7,0 53.8,10.8 73.4,30.4 l22.6,22.6 c5.3,5.3 13.8,5.3 19.1,0 l22.4,-22.4 c19.6,-19.6 45.7,-30.4 73.3,-30.4 c27.6,0 53.6,10.8 73.2,30.3 c19.6,19.6 30.3,45.6 30.3,73.3 C492.25862652158736,227.21399467086792 481.45862652158735,253.21399467086792 461.8586265215874,272.81399467086794 z" id="svg_2"/> </g> </g></g></svg>